<svg xmlns="http://www.w3.org/2000/svg" xmlns:xlink="http://www.w3.org/1999/xlink" width="640" zoomAndPan="magnify" viewBox="0 0 480 479.999983" height="640" preserveAspectRatio="xMidYMid meet" version="1.0"><defs><g/><clipPath id="e71ec6a09b"><path d="M 0.199219 117 L 191 117 L 191 214 L 0.199219 214 Z M 0.199219 117 " clip-rule="nonzero"/></clipPath><clipPath id="414712f8de"><rect x="0" width="473" y="0" height="285"/></clipPath></defs><rect x="-48" width="576" fill="#ffffff" y="-47.999998" height="575.99998" fill-opacity="1"/><rect x="-48" width="576" fill="#080c10" y="-47.999998" height="575.99998" fill-opacity="1"/><g transform="matrix(1, 0, 0, 1, 7, 98)"><g clip-path="url(#414712f8de)"><g clip-path="url(#e71ec6a09b)"><g fill="#c8f135" fill-opacity="1"><g transform="translate(0.293612, 213.627572)"><g><path d="M 95.171875 -80.4375 L 66.90625 0 L 47.984375 0 L 16.53125 -84.421875 L 0.390625 -86.40625 L 1 -96.171875 L 59.734375 -96.171875 L 60.125 -86.40625 L 36.828125 -84.421875 L 61.71875 -15.921875 L 89.796875 -96.171875 L 108.90625 -96.171875 L 137.78125 -15.921875 L 161.875 -84.625 L 138.984375 -86.40625 L 139.578125 -96.171875 L 189.15625 -96.171875 L 189.953125 -86.40625 L 172.828125 -84.421875 L 142.765625 0 L 124.4375 0 Z M 95.171875 -80.4375 "/></g></g></g></g><g fill="#c8f135" fill-opacity="1"><g transform="translate(190.632829, 213.627572)"><g><path d="M 75.0625 2.390625 C 63.113281 2.390625 53.023438 1.195312 44.796875 -1.1875 C 36.566406 -3.582031 29.960938 -6.96875 24.984375 -11.34375 C 20.003906 -15.726562 16.585938 -21.003906 14.734375 -27.171875 C 12.878906 -33.347656 12.347656 -40.285156 13.140625 -47.984375 L 15.125 -64.90625 L 27.875 -63.921875 L 27.078125 -48.578125 C 26.679688 -41.410156 27.476562 -35.367188 29.46875 -30.453125 C 31.457031 -25.546875 34.507812 -21.628906 38.625 -18.703125 C 42.738281 -15.785156 47.71875 -13.695312 53.5625 -12.4375 C 59.40625 -11.175781 65.972656 -10.546875 73.265625 -10.546875 C 79.773438 -10.546875 85.648438 -11.175781 90.890625 -12.4375 C 96.140625 -13.695312 100.65625 -15.722656 104.4375 -18.515625 C 108.21875 -21.304688 111.132812 -24.820312 113.1875 -29.0625 C 115.25 -33.3125 116.28125 -38.425781 116.28125 -44.40625 C 116.28125 -48.382812 115.679688 -52.195312 114.484375 -55.84375 C 113.296875 -59.5 111.207031 -62.6875 108.21875 -65.40625 C 105.226562 -68.125 101.210938 -70.28125 96.171875 -71.875 C 91.128906 -73.46875 84.757812 -74.195312 77.0625 -74.0625 L 62.328125 -73.671875 L 60.921875 -84.03125 L 106.328125 -130.21875 L 35.4375 -129.421875 L 38.421875 -91.1875 L 25.484375 -90.59375 L 19.3125 -146.546875 L 128.625 -146.546875 L 130.015625 -135.796875 L 77.0625 -84.03125 L 80.640625 -84.21875 C 92.984375 -85.019531 102.835938 -84.191406 110.203125 -81.734375 C 117.566406 -79.273438 123.238281 -75.988281 127.21875 -71.875 C 131.207031 -67.757812 133.832031 -63.179688 135.09375 -58.140625 C 136.351562 -53.097656 136.984375 -48.316406 136.984375 -43.796875 C 136.984375 -37.429688 135.921875 -31.425781 133.796875 -25.78125 C 131.671875 -20.144531 128.148438 -15.234375 123.234375 -11.046875 C 118.328125 -6.867188 111.957031 -3.582031 104.125 -1.1875 C 96.300781 1.195312 86.613281 2.390625 75.0625 2.390625 Z M 75.0625 2.390625 "/></g></g></g><g fill="#c8f135" fill-opacity="1"><g transform="translate(338.962035, 213.627572)"><g><path d="M 79.046875 2.390625 C 72.671875 2.390625 66.925781 1.328125 61.8125 -0.796875 C 56.707031 -2.921875 52.265625 -5.675781 48.484375 -9.0625 C 44.703125 -12.445312 41.648438 -16.195312 39.328125 -20.3125 C 37.003906 -24.425781 35.378906 -28.539062 34.453125 -32.65625 L 33.65625 -32.65625 L 27.484375 0 L 15.921875 0 L 15.921875 -138.984375 L -3.578125 -140.96875 L -2.984375 -150.53125 L 36.03125 -150.53125 L 36.03125 -90.203125 L 33.65625 -61.921875 L 34.25 -61.921875 C 37.300781 -74.398438 42.773438 -83.625 50.671875 -89.59375 C 58.566406 -95.570312 67.757812 -98.5625 78.25 -98.5625 C 85.414062 -98.5625 91.851562 -97.398438 97.5625 -95.078125 C 103.269531 -92.753906 108.179688 -89.429688 112.296875 -85.109375 C 116.410156 -80.796875 119.5625 -75.519531 121.75 -69.28125 C 123.945312 -63.050781 125.046875 -56.085938 125.046875 -48.390625 C 125.046875 -41.085938 123.984375 -34.316406 121.859375 -28.078125 C 119.734375 -21.835938 116.710938 -16.457031 112.796875 -11.9375 C 108.878906 -7.425781 104.066406 -3.910156 98.359375 -1.390625 C 92.648438 1.128906 86.210938 2.390625 79.046875 2.390625 Z M 71.28125 -11.546875 C 81.632812 -11.546875 89.726562 -14.929688 95.5625 -21.703125 C 101.40625 -28.472656 104.328125 -37.695312 104.328125 -49.375 C 104.328125 -60.925781 101.375 -69.820312 95.46875 -76.0625 C 89.5625 -82.300781 81.429688 -85.421875 71.078125 -85.421875 C 65.773438 -85.421875 60.960938 -84.390625 56.640625 -82.328125 C 52.328125 -80.273438 48.644531 -77.519531 45.59375 -74.0625 C 42.539062 -70.613281 40.179688 -66.632812 38.515625 -62.125 C 36.859375 -57.613281 36.03125 -52.898438 36.03125 -47.984375 C 36.03125 -42.671875 36.859375 -37.789062 38.515625 -33.34375 C 40.179688 -28.90625 42.570312 -25.054688 45.6875 -21.796875 C 48.8125 -18.546875 52.53125 -16.023438 56.84375 -14.234375 C 61.15625 -12.441406 65.96875 -11.546875 71.28125 -11.546875 Z M 71.28125 -11.546875 "/></g></g></g></g></g></svg>