<svg xmlns="http://www.w3.org/2000/svg" xmlns:xlink="http://www.w3.org/1999/xlink" width="640" zoomAndPan="magnify" viewBox="0 0 480 479.999983" height="640" preserveAspectRatio="xMidYMid meet" version="1.0"><defs><g/><clipPath id="ad2f92aa63"><rect x="0" width="197" y="0" height="367"/></clipPath><clipPath id="b2e44b5ed0"><rect x="0" width="303" y="0" height="385"/></clipPath><clipPath id="b78936f324"><rect x="0" width="189" y="0" height="367"/></clipPath></defs><rect x="-48" width="576" fill="#ffffff" y="-47.999998" height="575.99998" fill-opacity="1"/><rect x="-48" width="576" fill="#080c10" y="-47.999998" height="575.99998" fill-opacity="1"/><g transform="matrix(1, 0, 0, 1, 283, 0)"><g clip-path="url(#ad2f92aa63)"><g fill="#c8f135" fill-opacity="1"><g transform="translate(10.822478, 275.924171)"><g><path d="M 117.53125 3.640625 C 111.46875 3.640625 105.441406 2.726562 99.453125 0.90625 C 93.472656 -0.90625 87.882812 -3.675781 82.6875 -7.40625 C 77.488281 -11.132812 72.9375 -15.816406 69.03125 -21.453125 C 65.132812 -27.085938 62.320312 -33.71875 60.59375 -41.34375 L 59.28125 -41.34375 L 43.171875 0 L 17.15625 0 L 17.15625 -177.34375 L -5.203125 -180.71875 L -3.640625 -203.34375 L 63.453125 -203.34375 L 63.453125 -127.15625 L 59.8125 -90.234375 L 60.84375 -90.234375 C 65.007812 -105.484375 72.03125 -116.789062 81.90625 -124.15625 C 91.789062 -131.53125 103.234375 -135.21875 116.234375 -135.21875 C 125.597656 -135.21875 134.09375 -133.613281 141.71875 -130.40625 C 149.34375 -127.195312 155.84375 -122.601562 161.21875 -116.625 C 166.59375 -110.644531 170.753906 -103.40625 173.703125 -94.90625 C 176.648438 -86.414062 178.125 -76.882812 178.125 -66.3125 C 178.125 -56.25 176.78125 -46.972656 174.09375 -38.484375 C 171.40625 -29.992188 167.457031 -22.625 162.25 -16.375 C 157.050781 -10.132812 150.679688 -5.238281 143.140625 -1.6875 C 135.597656 1.863281 127.0625 3.640625 117.53125 3.640625 Z M 97.25 -27.296875 C 107.476562 -27.296875 115.492188 -30.71875 121.296875 -37.5625 C 127.109375 -44.414062 130.015625 -54.429688 130.015625 -67.609375 C 130.015625 -80.429688 127.109375 -90.050781 121.296875 -96.46875 C 115.492188 -102.882812 107.566406 -106.09375 97.515625 -106.09375 C 92.304688 -106.09375 87.578125 -105.050781 83.328125 -102.96875 C 79.085938 -100.894531 75.492188 -98.035156 72.546875 -94.390625 C 69.597656 -90.753906 67.34375 -86.550781 65.78125 -81.78125 C 64.226562 -77.007812 63.453125 -72.023438 63.453125 -66.828125 C 63.453125 -54.171875 66.570312 -44.414062 72.8125 -37.5625 C 79.050781 -30.71875 87.195312 -27.296875 97.25 -27.296875 Z M 97.25 -27.296875 "/></g></g></g></g></g><g transform="matrix(1, 0, 0, 1, 0, 0)"><g clip-path="url(#b2e44b5ed0)"><g fill="#c8f135" fill-opacity="1"><g transform="translate(0.0000085, 279.794145)"><g><path d="M 150.125 -114.78125 L 116.28125 0 L 64.9375 0 L 23.5625 -122.625 L 0.90625 -126.5625 L 3.015625 -152.828125 L 102.390625 -152.828125 L 103.90625 -126.5625 L 76.71875 -122.625 L 103.609375 -39.5625 L 136.828125 -152.828125 L 189.078125 -152.828125 L 223.8125 -40.171875 L 249.1875 -122.9375 L 223.515625 -126.5625 L 225.03125 -152.828125 L 297.21875 -152.828125 L 299.328125 -126.5625 L 274.5625 -122.03125 L 236.5 0 L 186.96875 0 Z M 150.125 -114.78125 "/></g></g></g></g></g><g transform="matrix(1, 0, 0, 1, 165, 112)"><g clip-path="url(#b78936f324)"><g fill="#080c10" fill-opacity="1"><g transform="translate(2.956607, 278.370679)"><g><path d="M 91.082031 13.101562 C 74.429688 13.101562 60.253906 11.457031 48.554688 8.167969 C 36.347656 4.734375 26.445312 -0.238281 18.851562 -6.75 C 10.882812 -13.582031 5.488281 -21.851562 2.667969 -31.558594 C -0.015625 -40.800781 -0.484375 -51.039062 1.257812 -62.269531 L 6.152344 -94.78125 L 52.328125 -90.585938 L 50.484375 -60.726562 C 50.078125 -55.195312 50.566406 -50.746094 51.949219 -47.382812 C 53.210938 -44.3125 55.101562 -41.863281 57.621094 -40.042969 C 60.492188 -37.964844 64.179688 -36.46875 68.683594 -35.554688 C 73.90625 -34.496094 79.847656 -33.964844 86.503906 -33.964844 C 91.996094 -33.964844 96.90625 -34.507812 101.234375 -35.589844 C 105.089844 -36.550781 108.328125 -38.011719 110.953125 -39.964844 C 113.34375 -41.742188 115.214844 -44.042969 116.574219 -46.871094 C 117.980469 -49.804688 118.6875 -53.519531 118.6875 -58.007812 C 118.6875 -60.71875 118.289062 -63.527344 117.496094 -66.4375 C 116.910156 -68.585938 115.746094 -70.558594 114.003906 -72.347656 C 112.179688 -74.230469 109.398438 -75.8125 105.660156 -77.097656 C 101.492188 -78.535156 95.699219 -79.25 88.285156 -79.25 L 88.285156 -88.792969 L 88.539062 -79.253906 L 70.855469 -78.777344 L 65.101562 -112.5 L 109.851562 -159.722656 L 116.777344 -153.160156 L 117.113281 -143.625 L 51.980469 -141.335938 L 51.648438 -150.871094 L 61.175781 -151.332031 L 63.414062 -105.292969 L 16.011719 -102.355469 L 7.367188 -198.066406 L 173.085938 -198.066406 L 178.328125 -162.964844 L 117.328125 -103.582031 L 110.671875 -110.417969 L 110.558594 -119.957031 C 125.941406 -120.144531 138.433594 -118.246094 148.03125 -114.269531 C 157.863281 -110.199219 165.523438 -104.898438 171.019531 -98.367188 C 176.507812 -91.84375 180.144531 -84.648438 181.925781 -76.78125 C 183.527344 -69.726562 184.328125 -63.042969 184.328125 -56.734375 C 184.328125 -47.054688 182.667969 -37.96875 179.347656 -29.472656 C 175.867188 -20.570312 170.230469 -12.878906 162.4375 -6.402344 C 154.878906 -0.117188 145.113281 4.734375 133.136719 8.15625 C 121.59375 11.453125 107.578125 13.101562 91.082031 13.101562 Z M 91.082031 -5.980469 C 105.796875 -5.980469 118.066406 -7.382812 127.894531 -10.191406 C 137.292969 -12.875 144.742188 -16.503906 150.242188 -21.074219 C 155.511719 -25.453125 159.289062 -30.570312 161.574219 -36.421875 C 164.019531 -42.679688 165.246094 -49.453125 165.246094 -56.734375 C 165.246094 -61.621094 164.601562 -66.898438 163.316406 -72.5625 C 162.21875 -77.417969 159.917969 -81.925781 156.417969 -86.085938 C 152.921875 -90.238281 147.695312 -93.757812 140.730469 -96.640625 C 133.542969 -99.621094 123.558594 -101.03125 110.785156 -100.878906 L 86.898438 -100.589844 L 161.515625 -173.226562 L 168.171875 -166.390625 L 158.734375 -164.980469 L 155.425781 -187.113281 L 164.863281 -188.523438 L 164.863281 -178.984375 L 17.808594 -178.984375 L 17.808594 -188.523438 L 27.3125 -189.382812 L 34.179688 -113.3125 L 24.679688 -112.453125 L 24.089844 -121.976562 L 52.839844 -123.757812 L 53.429688 -114.234375 L 43.898438 -113.769531 L 41.648438 -160.066406 L 139.734375 -163.511719 L 82.234375 -102.835938 L 75.308594 -109.398438 L 84.710938 -111.003906 L 88.273438 -90.144531 L 78.871094 -88.539062 L 78.613281 -98.074219 L 88.15625 -98.332031 L 88.285156 -98.332031 C 97.828125 -98.332031 105.691406 -97.269531 111.871094 -95.140625 C 118.476562 -92.867188 123.75 -89.703125 127.691406 -85.644531 C 131.71875 -81.5 134.457031 -76.769531 135.90625 -71.457031 C 137.148438 -66.90625 137.769531 -62.421875 137.769531 -58.007812 C 137.769531 -50.625 136.4375 -44.160156 133.773438 -38.613281 C 131.0625 -32.960938 127.25 -28.308594 122.347656 -24.65625 C 117.679688 -21.183594 112.183594 -18.65625 105.863281 -17.078125 C 100.015625 -15.613281 93.5625 -14.882812 86.503906 -14.882812 C 78.570312 -14.882812 71.367188 -15.539062 64.886719 -16.855469 C 57.6875 -18.316406 51.539062 -20.890625 46.4375 -24.582031 C 40.984375 -28.527344 36.9375 -33.710938 34.296875 -40.136719 C 31.777344 -46.269531 30.824219 -53.527344 31.4375 -61.902344 L 32.710938 -82.511719 L 42.234375 -81.921875 L 41.371094 -72.421875 L 13.382812 -74.964844 L 14.246094 -84.46875 L 23.683594 -83.046875 L 20.113281 -59.34375 C 18.804688 -50.898438 19.097656 -43.410156 20.992188 -36.878906 C 22.753906 -30.8125 26.179688 -25.601562 31.269531 -21.238281 C 36.734375 -16.554688 44.21875 -12.875 53.722656 -10.203125 C 63.730469 -7.386719 76.183594 -5.980469 91.082031 -5.980469 Z M 91.082031 -5.980469 "/></g></g></g><g fill="#c8f135" fill-opacity="1"><g transform="translate(2.956607, 278.370679)"><g><path d="M 91.078125 3.5625 C 75.304688 3.5625 61.992188 2.035156 51.140625 -1.015625 C 40.285156 -4.066406 31.59375 -8.390625 25.0625 -13.984375 C 18.53125 -19.585938 14.117188 -26.332031 11.828125 -34.21875 C 9.535156 -42.101562 9.15625 -50.96875 10.6875 -60.8125 L 14.25 -84.46875 L 42.234375 -81.921875 L 40.96875 -61.3125 C 40.457031 -54.363281 41.175781 -48.515625 43.125 -43.765625 C 45.070312 -39.015625 48.039062 -35.195312 52.03125 -32.3125 C 56.019531 -29.425781 60.9375 -27.390625 66.78125 -26.203125 C 72.632812 -25.015625 79.207031 -24.421875 86.5 -24.421875 C 92.78125 -24.421875 98.460938 -25.054688 103.546875 -26.328125 C 108.640625 -27.597656 113.007812 -29.585938 116.65625 -32.296875 C 120.300781 -35.015625 123.140625 -38.492188 125.171875 -42.734375 C 127.210938 -46.984375 128.234375 -52.078125 128.234375 -58.015625 C 128.234375 -61.566406 127.722656 -65.207031 126.703125 -68.9375 C 125.679688 -72.675781 123.726562 -76.03125 120.84375 -79 C 117.96875 -81.96875 113.941406 -84.34375 108.765625 -86.125 C 103.585938 -87.90625 96.757812 -88.796875 88.28125 -88.796875 L 78.875 -88.53125 L 75.3125 -109.40625 L 116.78125 -153.15625 L 51.640625 -150.875 L 53.421875 -114.234375 L 24.671875 -112.453125 L 17.8125 -188.53125 L 164.859375 -188.53125 L 168.171875 -166.390625 L 110.671875 -110.421875 C 124.753906 -110.585938 135.992188 -108.929688 144.390625 -105.453125 C 152.785156 -101.984375 159.226562 -97.578125 163.71875 -92.234375 C 168.21875 -86.890625 171.1875 -81.035156 172.625 -74.671875 C 174.0625 -68.304688 174.78125 -62.328125 174.78125 -56.734375 C 174.78125 -48.253906 173.335938 -40.320312 170.453125 -32.9375 C 167.578125 -25.5625 162.875 -19.160156 156.34375 -13.734375 C 149.8125 -8.304688 141.203125 -4.066406 130.515625 -1.015625 C 119.828125 2.035156 106.679688 3.5625 91.078125 3.5625 Z M 91.078125 3.5625 "/></g></g></g></g></g></svg>